<svg xmlns="http://www.w3.org/2000/svg" id="Calque_1" viewBox="0 0 246.6 119.1"><defs><style>.st0{fill:#fff}.st1{fill:#da291c}</style></defs><path d="M66.3 49.7v-1L79.1 36l9.9-9.8s3.7-3.9 3.4-9.1C90.9 7.6 89.6.2 89.6.2L64.8 10.3l.5 1.9s6.3-2.4 8.4 0c.3.3.5.5.9 1.5.6 1.9 1.4 5.8 3 14.2.3 1.9-.4 3.1-.8 3.6 0 .1-11.1 11.3-11.1 11.3-.4-2.8-.3-2 0 0C62.8 26.4 58.4 0 58.4 0L33.5 10.1l.4 1.8s6.3-2.4 8.4 0c.3.3.5.5.9 1.5.6 1.9 1.4 5.7 3 14.3.4 2.5-1 3.9-1 3.9l-11 11.1C31.8 26.5 27.5.3 27.5.3L2.6 10.4l.5 1.8s6.3-2.4 8.4 0c1 1.1 1.7.6 9.9 49.8 0 0 1.2 6.7-5.7 12.6l1.9 2.3s19.9-13 17.9-26.9c0-.4 0-.7-.2-1.1L48 36.3c1.2 6.5 2.6 14.9 4.4 25.6 0 0 1.2 6.7-5.7 12.6l1.9 2.3s19.9-13 17.9-26.9M155 33.4c-.1.5-.2 1-.4 1.5-.4 1.7-.8 3.3-.8 3.3h7s.4-1.8.9-3.6c.6-2.1 1.1-4.4 1.1-4.4.9-3.7-1.5-9.8-7.3-8.8-2.1.4-4 1.4-5.9 2.5-2.7 1.6-5.2 3.6-7.6 5.7l-4.3 14.5H128c2.1-7.8 3.5-8.7-.1-13l-5.4 2.6c.7 1.7.5 2.8.2 4.2l-1.8 6.3h-3.8l-1.1 3.6h3.9l-6 24.4c.1 1.1 2.7 4.7 5.8 4.7l8.9-5.5-1.1-1.9c-5.2 3.4-5.8 1-5.8 0 1.9-7.2 5.4-21.6 5.4-21.6h8.5s1.5-.2 1.1 1.1L130 76.2h7.3l7-28.3h4.9c1.3.2 2.3.7 1.9 2.3 0 0-5.4 21.9-5.4 22.1.1 1.1 2.7 4.7 5.8 4.7l8.9-5.5-1.1-1.8c-2.3 1.5-3.7 1.9-4.6 1.7h-.2c-.8-.3-.9-1.2-.9-1.7 1.9-7.2 6.2-25.2 6.2-25.2h-14.5l3.6-13.7c.8-2.1 3.4-3.9 5.4-3.6 2.2.3 1.7 3.2 1 6 0 0 0 .3-.1.4M115.4 50.9c-.2-.4-.3-.7-.5-1-1.6-3.4-3.7-5-5.9-5.6h-.3c-.5 0-1.1-.2-1.7-.2-4.1 0-10.5 2.8-12.1 6.9-.8 2.2-2 6-1.7 8.2 0 .2.1.5.2.7.3.7.7 1.2 1.3 1.6 1.5 1.2 4 1.7 6.3 2.4h.1c.2 0 .4.1.6.2.9.4 1.6.9 1.8 1.7.2 1.4-.5 3.9-1.4 5.4-2.3 3.8-5.2 1.5-8-4.5-.2 0-5.2 3.1-5.4 3.2.2.4.3.7.5 1 1.6 3.4 3.7 5 5.9 5.6h.3c.5 0 1 .2 1.7.2 4.1 0 10.5-2.8 12.1-6.9.8-2.2 2-6 1.7-8.2 0-.3-.1-.5-.2-.7-.3-.7-.7-1.2-1.3-1.6-1.5-1.2-4-1.7-6.3-2.4h-.1c-.2 0-.4 0-.6-.2-.9-.4-1.6-.9-1.8-1.7-.2-1.4.5-3.9 1.4-5.4 2.3-3.8 5.2-1.5 8 4.5.2 0 5.2-3.1 5.4-3.2M243.9 21.8c-5.2-.1-10.9.4-14.7 4.4-2.2 4.1-6.5 19.5-6.5 19.5-1.3-1.9-11.8-4.2-17.8 3.8-.8 1.6-5.2 19.1-5.3 19.2-1.5 1-5.4 2.5-6 2.5-.9-.4-1.4-1.1-1.2-2.1 3.9-13.4 6.6-27.1 11-40.3 1.6-3.3 5.3-4.8 8.8-5.2v-1.8c-5.3-.1-11 .4-14.8 4.4-2.9 4.7-12.4 44-12.4 44-.5 3.3 3 6.8 5.3 6.6 3.4-1.5 6.5-3.5 9.7-5.4 1.1 1.4 2.8 3.3 4.2 4.3 4.1 2.9 12.2-2.3 12.2-2.2 1.1 1.8 2.9 3.7 6 3.1 2.3-.8 11.4-6.7 11.4-6.7l-1.2-2s-4.8 3.1-7.6 3.4c0 0-1.6 0-1.2-2L235.2 29c1.6-3.3 5.3-4.8 8.8-5.2M221.2 52l-4 14.5c-.2.9-.7 1.2-1 1.6-4.8 3.9-10.5 5.5-8.5-2.8 0 0 3.5-13.5 4-14.4 3.1-4 9.9-4.5 9.4 1.2M185.7 45.2c-2.4-2.3-7.6-1-10.9-.2-3.5 1.1-7.4 2.3-9 6.3-1.3 4.6-3.6 13.2-4.8 18.8 0 1.5 4.9 6.5 8.5 6.8 1.1.4 12.4-6.9 12.4-6.9l-1.2-2s-4.6 2.9-7.4 3.3h-.3c-1.6-.2-3.6-1.5-4.2-2.9-.2-.4 1.4-6.2 1.4-6.2s10.9.5 14.1-3.6c2.4-3.8 4-10.3 1.3-13.3m-5.9 9.1c-1.6 4.6-7.2 4-8.1 3.8-.2 0-.1-.3-.1-.3l1.4-5.5c.9-3.1 4.7-4.9 6.3-4.5 2.6 1 .5 6.5.5 6.5" class="st1"/><path d="M90.5 45.2c-2.4-2.3-7.6-1-10.9-.2-3.5 1.1-7.4 2.3-9 6.3-1.3 4.6-3.6 13.2-4.8 18.8 0 1.5 4.9 6.5 8.5 6.8 1.1.4 12.4-6.9 12.4-6.9l-1.2-2s-4.6 2.9-7.4 3.3h-.3c-1.6-.2-3.6-1.5-4.2-2.9-.2-.4 1.4-6.2 1.4-6.2s10.9.5 14.1-3.6c2.4-3.8 4-10.3 1.3-13.3m-5.9 9.1c-1.6 4.6-7.2 4-8.1 3.8v-.3l1.4-5.5c.9-3.1 4.7-4.9 6.3-4.5 2.6 1 .5 6.5.5 6.5" class="st1"/><g><path d="M0 87.4h2.6v25.8h7.9v2.3H0V87.4ZM14.1 87.4h10.5v2.2h-7.9v9.9h6.4v2.3h-6.4v11.3h7.9v2.3H14V87.3ZM27.2 109.1h2.5c.3 2.7 1.3 4.6 3.6 4.6s3.3-2.2 3.3-4.2-.8-3.9-2.4-5.6l-3.5-4.1c-1.9-2.1-3.1-4.3-3.1-6.8s1.9-6.1 5.7-6.1 5.3 1.7 5.6 6.2h-2.4c-.3-2.8-1.3-4.1-3.2-4.1s-3.2 1.2-3.2 3.7 1.3 3.5 2.8 5.2l3 3.5c2.1 2.4 3.3 4.8 3.3 7.7s-2.1 6.6-5.8 6.6-5.8-2.4-6.2-6.8v.2ZM55 108.1h-7.5v-2.2l6.8-18.5h2.6l-7 18.4H55v-6.2l2.4-1.9v8.1h2.3v2.3h-2.3v7.5H55v-7.5ZM73 89.7h-5.4v-2.3H81v2.3h-5.3v25.9h-2.6V89.7ZM84.3 87.4h10.5v2.2h-7.9v9.9h6.4v2.3h-6.4v11.3h7.9v2.3H84.2V87.3h.1ZM98.9 87.4h3.1l4.6 12.4 4.6-12.4h3v28.1h-2.4v-23l-4.3 11.6h-1.8l-4.3-11.6v22.9H99V87.3h-.1ZM119.2 87.4h5.7c4.6 0 6.2 3.4 6.2 8.1s-2.1 8.4-6.5 8.4h-2.8v11.6h-2.7V87.4h.1Zm5.2 14.2c2.8 0 4.1-2.2 4.1-6.2s-.9-5.7-3.9-5.7h-2.8v11.9h2.6ZM134.4 109.1h2.5c.3 2.7 1.3 4.6 3.6 4.6s3.3-2.2 3.3-4.2-.8-3.9-2.4-5.6l-3.5-4.1c-1.9-2.1-3.1-4.3-3.1-6.8s1.9-6.1 5.7-6.1 5.3 1.7 5.6 6.2h-2.4c-.3-2.8-1.3-4.1-3.2-4.1s-3.2 1.2-3.2 3.7 1.3 3.5 2.8 5.2l3 3.5c2.1 2.4 3.3 4.8 3.3 7.7s-2.1 6.6-5.8 6.6-5.8-2.4-6.2-6.8v.2ZM171.1 84.2h1.9l-6.6 34.9h-2.1l6.8-34.9ZM192.5 109.9V93.2c0-3.8 2.5-6.2 6.6-6.2s6.1 2.4 6.1 5.5v3.2h-2.4V93c0-2.2-1.2-3.7-3.8-3.7s-3.8 1.9-3.8 4.1v16.1c0 2.7 1.5 4.1 3.9 4.1s3.7-1.6 3.7-3.6v-2.8h2.4v3c0 3.4-2.3 5.8-6 5.8s-6.6-2.2-6.6-6h-.1ZM209.4 87.4h3l7.5 21.1V87.4h2.3v28.1h-2.5l-8-22.8v22.8h-2.4V87.4h.1ZM227.2 87.4h2.7v28.1h-2.7V87.4ZM238.6 89.7h-5.4v-2.3h13.4v2.3h-5.3v25.9h-2.6V89.7h-.1Z" class="st0"/></g></svg>