<svg xmlns="http://www.w3.org/2000/svg" id="Calque_2" viewBox="0 0 270.5 119.1"><defs><style>.st0{fill:#fff}.st1{fill:#da291c}</style></defs><path d="M78.3 49.7v-1L91.1 36l9.9-9.8s3.7-3.9 3.4-9.1C102.9 7.6 101.6.2 101.6.2L76.8 10.3l.5 1.9s6.3-2.4 8.4 0c.3.3.5.5.9 1.5.6 1.9 1.4 5.8 3 14.2.3 1.9-.4 3.1-.8 3.6 0 .1-11.1 11.3-11.1 11.3-.4-2.8-.3-2 0 0C75 26.4 70.6 0 70.6 0L45.7 10.1l.4 1.8s6.3-2.4 8.4 0c.3.3.5.5.9 1.5.6 1.9 1.4 5.7 3 14.3.4 2.5-1 3.9-1 3.9l-11 11.1C43.8 26.5 39.5.3 39.5.3L14.6 10.4l.5 1.8s6.3-2.4 8.4 0c1 1.1 1.7.6 9.9 49.8 0 0 1.2 6.7-5.7 12.6l1.9 2.3s19.9-13 17.9-26.9c0-.4 0-.7-.2-1.1L60 36.3c1.2 6.5 2.6 14.9 4.4 25.6 0 0 1.2 6.7-5.7 12.6l1.9 2.3s19.9-13 17.9-26.9M167 33.4c-.1.5-.2 1-.4 1.5-.4 1.7-.8 3.3-.8 3.3h7s.4-1.8.9-3.6c.6-2.1 1.1-4.4 1.1-4.4.9-3.7-1.5-9.8-7.3-8.8-2.1.4-4 1.4-5.9 2.5-2.7 1.6-5.2 3.6-7.6 5.7l-4.3 14.5H140c2.1-7.8 3.5-8.7-.1-13l-5.4 2.6c.7 1.7.5 2.8.2 4.2l-1.8 6.3h-3.8l-1.1 3.6h3.9l-6 24.4c.1 1.1 2.7 4.7 5.8 4.7l8.9-5.5-1.1-1.9c-5.2 3.4-5.8 1-5.8 0 1.9-7.2 5.4-21.6 5.4-21.6h8.5s1.5-.2 1.1 1.1L142 76.2h7.3l7-28.3h4.9c1.3.2 2.3.7 1.9 2.3 0 0-5.4 21.9-5.4 22.1.1 1.1 2.7 4.7 5.8 4.7l8.9-5.5-1.1-1.8c-2.3 1.5-3.7 1.9-4.6 1.7h-.2c-.8-.3-.9-1.2-.9-1.7 1.9-7.2 6.2-25.2 6.2-25.2h-14.5l3.6-13.7c.8-2.1 3.4-3.9 5.4-3.6 2.2.3 1.7 3.2 1 6 0 0 0 .3-.1.4M127.4 50.9c-.2-.4-.3-.7-.5-1-1.6-3.4-3.7-5-5.9-5.6h-.3c-.5 0-1.1-.2-1.7-.2-4.1 0-10.5 2.8-12.1 6.9-.8 2.2-2 6-1.7 8.2 0 .2.1.5.2.7.3.7.7 1.2 1.3 1.6 1.5 1.2 4 1.7 6.3 2.4h.1c.2 0 .4.1.6.2.9.4 1.6.9 1.8 1.7.2 1.4-.5 3.9-1.4 5.4-2.3 3.8-5.2 1.5-8-4.5-.2 0-5.2 3.1-5.4 3.2.2.4.3.7.5 1 1.6 3.4 3.7 5 5.9 5.6h.3c.5 0 1 .2 1.7.2 4.1 0 10.5-2.8 12.1-6.9.8-2.2 2-6 1.7-8.2 0-.3-.1-.5-.2-.7-.3-.7-.7-1.2-1.3-1.6-1.5-1.2-4-1.7-6.3-2.4h-.1c-.2 0-.4 0-.6-.2-.9-.4-1.6-.9-1.8-1.7-.2-1.4.5-3.9 1.4-5.4 2.3-3.8 5.2-1.5 8 4.5.2 0 5.2-3.1 5.4-3.2M255.9 21.8c-5.2-.1-10.9.4-14.7 4.4-2.2 4.1-6.5 19.5-6.5 19.5-1.3-1.9-11.8-4.2-17.8 3.8-.8 1.6-5.2 19.1-5.3 19.2-1.4 1-5.4 2.5-6 2.5-.9-.4-1.4-1.1-1.2-2.1 3.9-13.4 6.6-27.1 11-40.3 1.6-3.3 5.3-4.8 8.8-5.2v-1.8c-5.3-.1-11 .4-14.8 4.4-2.9 4.7-12.4 44-12.4 44-.5 3.3 3 6.8 5.3 6.6 3.4-1.5 6.5-3.5 9.7-5.4 1.1 1.4 2.8 3.3 4.2 4.3 4.1 2.9 12.2-2.3 12.2-2.2 1.1 1.8 2.9 3.7 6 3.1 2.3-.8 11.4-6.7 11.4-6.7l-1.2-2s-4.8 3.1-7.6 3.4c0 0-1.6 0-1.2-2L247.2 29c1.6-3.3 5.3-4.8 8.8-5.2M233.2 52l-4 14.5c-.2.9-.7 1.2-1 1.6-4.8 3.9-10.5 5.5-8.5-2.8 0 0 3.5-13.5 4-14.4 3.1-4 9.9-4.5 9.4 1.2M197.7 45.2c-2.4-2.3-7.6-1-10.9-.2-3.5 1.1-7.4 2.3-9 6.3-1.3 4.6-3.6 13.2-4.8 18.8 0 1.5 4.9 6.5 8.5 6.8 1.1.4 12.4-6.9 12.4-6.9l-1.2-2s-4.6 2.9-7.4 3.3h-.3c-1.6-.2-3.6-1.5-4.2-2.9-.2-.4 1.4-6.2 1.4-6.2s10.9.5 14.1-3.6c2.4-3.8 4-10.3 1.3-13.3m-5.9 9.1c-1.6 4.6-7.2 4-8.1 3.8-.2 0-.1-.3-.1-.3l1.4-5.5c.9-3.1 4.7-4.9 6.3-4.5 2.6 1 .5 6.5.5 6.5" class="st1"/><path d="M102.5 45.2c-2.4-2.3-7.6-1-10.8-.2-3.5 1.1-7.3 2.3-9 6.3-1.3 4.6-3.6 13.2-4.8 18.8 0 1.5 4.9 6.5 8.5 6.8 1.1.4 12.4-6.9 12.4-6.9l-1.2-2s-4.6 2.9-7.4 3.3h-.3c-1.6-.2-3.6-1.5-4.2-2.9-.2-.4 1.4-6.2 1.4-6.2s10.9.5 14.1-3.6c2.4-3.8 4-10.3 1.3-13.3m-6 9.1c-1.6 4.6-7.2 4-8.1 3.8-.2 0 0-.3 0-.3l1.4-5.5c.9-3.1 4.7-4.9 6.3-4.5 2.6 1 .5 6.5.5 6.5" class="st1"/><path d="M0 90.3h3.1l4.7 12.5 4.6-12.5h3.1v28.3h-2.4V95.5l-4.4 11.7H6.9L2.6 95.5v23.1H.2V90.3H0ZM25 90.2h3.5l5.7 28.4h-2.7l-1.8-9h-6.4l-1.8 9H19l5.8-28.4h.2Zm4.4 17.2-2.7-14.1-2.7 14.1h5.5ZM38 90.3h2.7v26h7.9v2.3H37.9V90.3ZM52.1 90.3h2.7v26h7.9v2.3H52V90.3ZM71.4 112.5V96.3c0-4.2 2.9-6.5 6.7-6.5s6.5 1.9 6.5 6.1v16.3c0 4.5-2.8 6.7-6.7 6.7s-6.5-2.1-6.5-6.5Zm10.5 0V96c0-2.3-1.4-3.8-4-3.8s-3.8 1.8-3.8 3.9v16.4c0 2.2 1.3 4.1 3.9 4.1s3.9-1.9 3.9-4.1ZM89 90.3h10.6v2.3h-7.9v10H98v2.4h-6.3v13.6H89V90.3ZM107.9 112.2h2.5c.3 2.7 1.4 4.6 3.7 4.6s3.3-2.2 3.3-4.2-.9-3.9-2.4-5.6l-3.5-4.1c-1.9-2.2-3.1-4.4-3.1-6.8s1.9-6.1 5.8-6.1 5.3 1.7 5.6 6.3h-2.5c-.3-2.8-1.4-4.1-3.3-4.1s-3.2 1.2-3.2 3.7 1.3 3.5 2.8 5.3l3 3.5c2.1 2.5 3.3 4.8 3.3 7.7s-2.1 6.7-5.9 6.7-5.9-2.4-6.2-6.8ZM123.5 112.9V96.1c0-3.8 2.5-6.3 6.6-6.3s6.1 2.4 6.1 5.5v3.2h-2.3v-2.7c0-2.2-1.3-3.7-3.9-3.7s-3.9 1.9-3.9 4.1v16.3c0 2.7 1.5 4.1 3.9 4.1s3.8-1.6 3.8-3.6v-2.8h2.3v3c0 3.5-2.3 5.8-6.1 5.8s-6.6-2.2-6.6-6.1ZM144.4 90.2h3.5l5.7 28.4h-2.7l-1.8-9h-6.4l-1.8 9h-2.5l5.8-28.4h.2Zm4.4 17.2-2.7-14.1h-.1l-2.7 14.1h5.5ZM157.3 90.3h3l7.6 21.2V90.3h2.4v28.3h-2.5l-8-22.9v22.9h-2.4V90.3h-.1ZM175.2 90.3h6.4c3.5 0 6.3 1.8 6.3 5.7v16.4c0 4.2-2.7 6.2-6.4 6.2h-6.2V90.3h-.1Zm6.1 26c2.9 0 3.9-2.1 3.9-3.9V96.3c0-2.1-1.1-3.7-3.8-3.7H178v23.7h3.4ZM192.4 90.3h2.7v28.3h-2.7V90.3ZM200 90.3h3l7.6 21.2V90.3h2.4v28.3h-2.5l-8-22.9v22.9h-2.4V90.3h-.1ZM222.5 90.2h3.5l5.7 28.4H229l-1.8-9h-6.4l-1.8 9h-2.5l5.8-28.4h.2Zm4.3 17.2-2.7-14.1h-.1l-2.7 14.1h5.5ZM232.2 90.3h2.7l4.1 23 4.2-23h2.5l-5.4 28.6h-2.8L232 90.3h.2ZM249.1 90.3h2.7v28.3h-2.7V90.3ZM261.3 90.2h3.5l5.7 28.4h-2.7l-1.8-9h-6.4l-1.8 9h-2.5l5.8-28.4h.2Zm4.3 17.2-2.7-14.1h-.1l-2.7 14.1h5.5Z" class="st0"/></svg>