<svg xmlns="http://www.w3.org/2000/svg" id="Ebene_2" viewBox="0 0 283.5 175.9"><defs><style>.st0{fill:#fff}.st1{fill:#da291c}</style></defs><path d="M66.6 170.1v-14.8h1.7v14.6c0 1.9 1.1 2.8 2.4 2.8s2.3-1.2 2.3-2.7v-14.6h1.6V170c0 2.6-1.5 4.3-4 4.3s-3.9-1.3-3.9-4.1Zm1.7-19.7h1.4v3h-1.4v-3Zm3 0h1.4v3h-1.4v-3ZM78 155.3h3.8c2.4 0 3.5 1.8 3.5 4.6s-.9 4-2.3 4.3c1.8.5 2.5 2.3 2.5 4.6 0 3.8-1.4 5.2-3.5 5.2h-4v-18.6Zm3.3 8.4c1.3 0 2.4-1.1 2.4-3.6s-.8-3.3-2.1-3.3h-2v6.9h1.7Zm.4 8.8c1.4 0 2.1-1.3 2.1-3.8s-1-3.6-2.4-3.6h-1.7v7.4h2ZM89 155.3h6.5v1.5h-4.9v6.6h3.9v1.5h-3.9v7.5h4.9v1.5h-6.6v-18.6ZM98.9 155.3h3.5c2.7 0 4 1.9 4 5.1s-.9 4.4-2.4 4.8l2.6 8.7h-1.7l-2.4-8.3h-1.9v8.3h-1.7v-18.6Zm3.5 9c1.6 0 2.3-1.4 2.3-3.7s-.5-3.7-2.4-3.7h-1.8v7.4h1.9ZM108.9 169.7h1.6c.2 1.8.8 3 2.3 3s2.1-1.5 2.1-2.8-.5-2.6-1.5-3.7l-2.2-2.7c-1.2-1.4-1.9-2.9-1.9-4.5s1.2-4 3.6-4 3.3 1.1 3.5 4.1h-1.5c-.2-1.9-.8-2.7-2-2.7s-2 .8-2 2.5.8 2.3 1.7 3.5l1.9 2.3c1.3 1.6 2.1 3.2 2.1 5.1s-1.3 4.4-3.6 4.4-3.6-1.6-3.8-4.5ZM119.3 155.3h6.5v1.5h-4.9v6.6h3.9v1.5h-3.9v7.5h4.9v1.5h-6.6v-18.6ZM129.1 155.3h6.5v1.5h-4.9v6.6h3.9v1.5h-3.9v7.5h4.9v1.5H129v-18.6ZM143.8 174c-.4.2-.8.2-1.2.2-2.4 0-4-1.4-4-4.3v-10.6c0-2.8 1.8-4.3 4.1-4.3s4 1.3 4 4v10.7c0 1.5-.5 2.6-1.3 3.2l2 1.4-1.1 1.4-2.4-1.9Zm1.2-4.1V159c0-1.5-.9-2.5-2.4-2.5s-2.4 1.2-2.4 2.6v10.8c0 1.4.8 2.7 2.4 2.7s2.4-1.3 2.4-2.7ZM149.9 170.1v-14.8h1.7v14.6c0 1.9 1.1 2.8 2.4 2.8s2.3-1.2 2.3-2.7v-14.6h1.6V170c0 2.6-1.5 4.3-4 4.3s-3.9-1.3-3.9-4.1ZM163.9 155.3h2.2l3.5 18.7h-1.7l-1.1-5.9h-3.9l-1.1 5.9h-1.5l3.6-18.7Zm2.7 11.3-1.6-9.3-1.7 9.3h3.4ZM172.8 155.3h3.5c2.7 0 4 1.9 4 5.1s-.9 4.4-2.4 4.8l2.6 8.7h-1.7l-2.4-8.3h-1.9v8.3h-1.7v-18.6Zm3.6 9c1.6 0 2.3-1.4 2.3-3.7s-.5-3.7-2.4-3.7h-1.8v7.4h1.9ZM185.9 156.8h-3.4v-1.5h8.3v1.5h-3.3v17.1h-1.6v-17.1ZM193.7 155.3h1.7v18.6h-1.7v-18.6ZM199.7 155.3h6.5v1.5h-4.9v6.6h3.9v1.5h-3.9v7.5h4.9v1.5h-6.6v-18.6ZM209.3 155.3h3.5c2.7 0 4 1.9 4 5.1s-.9 4.4-2.4 4.8l2.6 8.7h-1.7l-2.4-8.3H211v8.3h-1.7v-18.6Zm3.5 9c1.6 0 2.3-1.4 2.3-3.7s-.5-3.7-2.4-3.7h-1.8v7.4h1.9Z" class="st0"/><g><path d="M74.8 58.3c0-.4-.1-.8-.2-1.2s15-14.9 15-14.9l11.6-11.6s4.3-4.6 4-10.7C103.4 8.8 101.9 0 101.9 0L72.8 11.9h-.1l.5 2.2s7.4-2.8 9.9-.1c.3.3.6.6 1 1.8.7 2.2 1.7 6.7 3.5 16.7.4 2.2-.5 3.6-.9 4.2l-.1.1L73.5 50c-.5-3.3-.4-2.3 0 0-2.9-19-8-50-8-50L36.3 11.9l.5 2.2s7.4-2.8 9.9-.1c.3.4.6.6 1 1.8.7 2.2 1.7 6.7 3.6 16.7.5 2.9-1.2 4.5-1.2 4.5L37.2 50c-2.9-18.9-8-49.7-8-49.7L0 12.2l.5 2.2s7.4-2.8 9.9-.1c1.2 1.3 1.9.7 11.6 58.4 0 0 1.5 7.8-6.7 14.8l2.2 2.7s23.3-15.3 21-31.6c0-.4-.1-.9-.2-1.3l14.9-14.8c1.4 7.7 3 17.5 5.1 30.1 0 0 1.5 7.8-6.7 14.8l2.2 2.7s23.3-15.2 21-31.6M179 39.1c-.1.6-.3 1.2-.4 1.8-.5 2-1 3.9-1 3.9h8.2s.5-2.1 1.1-4.2c.7-2.5 1.3-5.2 1.3-5.2 1.1-4.3-1.7-11.6-8.6-10.3-2.5.4-4.7 1.6-6.9 2.9-3.2 1.9-6.1 4.3-9 6.7l-5 17.1h-11.4c2.4-9.2 4.1-10.2-.1-15.3l-6.4 3c.9 2 .5 3.3.2 4.9-.8 2.5-2.2 7.4-2.2 7.4h-4.5l-1.4 4.2h4.6s-7 28.6-7.1 28.6c.1 1.3 3.1 5.5 6.8 5.5 0 0 10.5-6.4 10.4-6.5l-1.3-2.2c-6.1 4-6.8 1.2-6.8-.1 2.2-8.4 6.3-25.3 6.3-25.3h10s1.8-.2 1.3 1.3l-7.8 32h8.6l8.2-33.3h5.7c1.6.2 2.7.8 2.2 2.7 0 0-6.3 25.7-6.4 25.9.1 1.3 3.1 5.5 6.8 5.5s10.4-6.5 10.4-6.5l-1.3-2.2c-2.7 1.8-4.4 2.2-5.4 2h-.2c-.9-.4-1.1-1.4-1.1-2 2.2-8.4 7.3-29.6 7.3-29.6h-17l4.2-16c1-2.4 4-4.6 6.3-4.2 2.5.4 2 3.7 1.2 7.1 0 .2 0 .3-.1.5M132.5 59.7l-.6-1.2c-1.9-4-4.4-5.8-6.9-6.5-.1 0-.3 0-.4-.1-.6-.1-1.2-.2-2-.2-4.8 0-12.3 3.3-14.2 8.1-1 2.5-2.4 7-2 9.6 0 .3.1.6.2.8.3.8.9 1.4 1.5 1.9 1.8 1.4 4.7 2 7.3 2.8h.1c.2 0 .5.2.7.2 1.1.4 1.9 1 2.1 2 .3 1.6-.6 4.5-1.7 6.4-2.7 4.4-6.1 1.7-9.3-5.3-.2.1-6.1 3.6-6.4 3.8l.6 1.2c1.9 4 4.4 5.8 6.9 6.6h.4c.6.1 1.2.2 1.9.2 4.8 0 12.3-3.3 14.2-8.1 1-2.5 2.4-7 2-9.6 0-.3-.1-.6-.2-.9-.3-.8-.9-1.4-1.5-1.9-1.8-1.4-4.7-2-7.4-2.8h-.1c-.2 0-.5-.2-.7-.2-1.1-.4-1.9-1-2.1-2-.3-1.6.6-4.5 1.7-6.4 2.7-4.4 6.1-1.7 9.4 5.3.2-.1 6.1-3.6 6.3-3.8M283.3 25.6c-6.1-.1-12.8.4-17.3 5.2-2.6 4.8-7.6 22.9-7.6 22.9-1.5-2.2-13.8-5-20.9 4.4v.1c-.9 1.8-6.1 22.5-6.2 22.5-1.7 1.2-6.4 3-7.1 2.9-1-.5-1.6-1.3-1.4-2.4 4.6-15.7 7.8-31.8 13-47.3 1.9-3.9 6.2-5.7 10.3-6.1v-2.1c-6.2-.1-12.9.4-17.4 5.2-3.4 5.5-14.6 51.7-14.6 51.7-.6 3.8 3.5 8 6.3 7.7 4-1.7 7.6-4.1 11.3-6.4 1.2 1.7 3.2 3.9 4.9 5 4.8 3.5 14.3-2.7 14.4-2.6 1.3 2.1 3.4 4.3 7 3.7 2.7-.9 13.4-7.9 13.4-7.9l-1.4-2.3s-5.7 3.6-8.9 3.9c0 0-1.9-.1-1.4-2.4 0 0 13.4-47.3 13.4-47.4 1.9-3.9 6.2-5.7 10.3-6.1M256.7 61 252 78.1c-.2 1-.8 1.4-1.1 1.8-5.7 4.6-12.3 6.4-9.9-3.4 0 0 4.1-15.9 4.7-17 3.6-4.7 11.6-5.3 11.1 1.4M215 53c-2.8-2.7-8.9-1.2-12.7-.2-4.1 1.3-8.6 2.7-10.6 7.4-1.5 5.4-4.2 15.4-5.6 22 0 1.8 5.7 7.6 10 7.9 1.3.5 14.5-8.1 14.5-8.1l-1.4-2.4s-5.4 3.4-8.7 3.8h-.3c-1.9-.3-4.3-1.7-4.9-3.4-.2-.5 1.6-7.3 1.6-7.3s12.8.6 16.6-4.2c2.8-4.5 4.7-12.1 1.5-15.6m-7 10.9c-1.9 5.3-8.5 4.6-9.5 4.5-.2 0-.1-.4-.1-.4l1.7-6.4c1-3.7 5.5-5.8 7.4-5.3 3.1 1.2.6 7.6.6 7.6" class="st1"/><path d="M103.3 53c-2.8-2.7-8.9-1.2-12.7-.2-4.1 1.3-8.6 2.7-10.6 7.4-1.6 5.4-4.2 15.4-5.6 22 0 1.8 5.7 7.6 10 7.9 1.3.5 14.5-8.1 14.5-8.1l-1.4-2.4s-5.4 3.4-8.7 3.8h-.3c-1.9-.3-4.3-1.7-4.9-3.4-.3-.5 1.6-7.3 1.6-7.3s12.8.6 16.6-4.2c2.8-4.5 4.7-12.1 1.5-15.6m-7.1 10.9c-1.9 5.3-8.5 4.6-9.5 4.5-.2 0-.1-.4-.1-.4l1.7-6.4c1-3.7 5.5-5.8 7.4-5.3 3.1 1.2.6 7.6.6 7.6" class="st1"/></g><g><path d="M66.6 106h3.2v14.7h8.8V106h3.2v33.3h-3.2v-15.6h-8.8v15.6h-3.2V106ZM94.7 105.9h4.2l6.7 33.4h-3.2l-2.1-10.5h-7.5l-2.1 10.5h-2.9l6.8-33.4Zm5.2 20.2-3.1-16.6h-.1l-3.2 16.6h6.4ZM111.8 106h3.7l5.5 14.7 5.4-14.7h3.6v33.3h-2.8v-27.2l-5.1 13.7H120l-5.1-13.7v27.1h-2.8v-33.3ZM137.7 106h7.3c4.6 0 6.6 3.2 6.6 8.3s-1.7 7.2-4.4 7.7v.2c3.5.7 4.7 4 4.7 7.9 0 6.7-2.8 9.2-6.6 9.2h-7.6V106Zm6.3 14.9c2.6 0 4.5-1.9 4.5-6.3s-1.6-6-4-6h-3.7v12.3h3.1Zm.6 15.7c2.6 0 4.1-2.3 4.1-6.7s-2-6.4-4.7-6.4h-3.2v13.2h3.8ZM158.6 132.4v-26.5h3.2v26c0 3.5 2.1 4.9 4.5 4.9s4.3-2.1 4.3-4.9v-26.1h3v26.1c0 4.7-2.9 7.6-7.6 7.6s-7.4-2.3-7.4-7.3ZM181.1 106h6.7c5.2 0 7.6 3.4 7.6 9.1s-1.8 7.8-4.6 8.6l4.9 15.6h-3.3l-4.6-14.8h-3.6v14.8H181V106Zm6.8 15.9c3 0 4.4-2.5 4.4-6.5s-1-6.7-4.6-6.7h-3.4v13.2h3.6ZM201.8 132.5v-19.6c0-4.4 2.9-7.5 7.7-7.5s7.2 2.9 7.2 6.5v3.7h-2.8v-3.3c0-2.5-1.6-4.2-4.4-4.2s-4.5 2.3-4.5 5v19c0 3 1.6 4.8 4.6 4.8s4.3-2 4.3-4.3v-8.2h-4.5v-2.6h7.6v11c0 4.1-2.7 6.9-7.3 6.9s-7.8-2.6-7.8-7.2Z" class="st0"/></g></svg>